<?xml version="1.0" encoding="UTF-8" standalone="no"?>
<svg
   xmlns:dc="http://purl.org/dc/elements/1.1/"
   xmlns:cc="http://creativecommons.org/ns#"
   xmlns:rdf="http://www.w3.org/1999/02/22-rdf-syntax-ns#"
   xmlns:svg="http://www.w3.org/2000/svg"
   xmlns="http://www.w3.org/2000/svg"
   xmlns:sodipodi="http://sodipodi.sourceforge.net/DTD/sodipodi-0.dtd"
   xmlns:inkscape="http://www.inkscape.org/namespaces/inkscape"
   id="svg8"
   version="1.1"
   viewBox="0 0 4.2333333 4.2333333"
   height="16"
   width="16"
   sodipodi:docname="logo_nuevo.svg"
   inkscape:version="0.92.4 (5da689c313, 2019-01-14)">
  <sodipodi:namedview
     pagecolor="#ffffff"
     bordercolor="#666666"
     borderopacity="1"
     objecttolerance="10"
     gridtolerance="10"
     guidetolerance="10"
     inkscape:pageopacity="0"
     inkscape:pageshadow="2"
     inkscape:window-width="1366"
     inkscape:window-height="706"
     id="namedview17"
     showgrid="false"
     units="px"
     inkscape:zoom="15.605163"
     inkscape:cx="11.632559"
     inkscape:cy="4.692503"
     inkscape:window-x="-8"
     inkscape:window-y="-8"
     inkscape:window-maximized="1"
     inkscape:current-layer="svg8" />
  <defs
     id="defs2" />
  <metadata
     id="metadata5">
    <rdf:RDF>
      <cc:Work
         rdf:about="">
        <dc:format>image/svg+xml</dc:format>
        <dc:type
           rdf:resource="http://purl.org/dc/dcmitype/StillImage" />
        <dc:title></dc:title>
      </cc:Work>
    </rdf:RDF>
  </metadata>
  <g
     id="layer1"
     transform="matrix(0.03097656,0,0,0.03097656,6.0964682,-1.3217592)">
    <g
       transform="translate(-232.07738,26.458329)"
       id="g3724">
      <path
         id="path3728"
         d="m 101.02548,151.31032 c 0,-0.0406 -0.56859,-0.0984 -1.263545,-0.12854 -1.457154,-0.0631 -4.017657,-0.31533 -5.775602,-0.56901 -11.743829,-1.69468 -22.808376,-6.5077 -32.119182,-13.97166 -2.004466,-1.60688 -3.630401,-3.06445 -5.465677,-4.89973 -10.534929,-10.53493 -17.194405,-24.12746 -19.042192,-38.866674 -0.209199,-1.66872 -0.423745,-4.211983 -0.425327,-5.0419 -6.25e-4,-0.328295 -0.04035,-0.636112 -0.08827,-0.684038 -0.05749,-0.05749 -0.07489,-0.948992 -0.05114,-2.620433 0.126892,-8.930129 1.69087,-17.007471 4.793833,-24.758295 3.374118,-8.428137 8.367031,-15.989991 14.815743,-22.438703 9.650529,-9.650528 21.862904,-16.060865 35.223369,-18.488923 2.158885,-0.392344 5.026403,-0.760371 6.731,-0.863879 0.512233,-0.0311 0.984814,-0.09906 1.050179,-0.151023 0.168064,-0.133593 8.230731,-0.133323 8.398311,2.81e-4 0.0654,0.05211 0.557,0.121414 1.09251,0.154001 1.22201,0.07436 3.34873,0.323828 5.16467,0.605824 13.82604,2.14703 26.74322,8.734292 36.75001,18.741079 10.6225,10.622497 17.30707,24.361261 19.08297,39.221115 0.11305,0.945942 0.23254,2.158044 0.26552,2.693561 0.034,0.552341 0.10047,0.999808 0.15357,1.034079 0.12878,0.08313 0.13277,8.428328 0.004,8.515175 -0.0492,0.03323 -0.13554,0.670013 -0.19179,1.415079 -0.39869,5.2822 -1.69255,11.335384 -3.52899,16.510004 -3.37142,9.49981 -8.68019,17.91324 -15.78799,25.02104 -6.44149,6.44148 -14.0324,11.45489 -22.42605,14.81125 -7.79047,3.11518 -15.84053,4.67276 -24.79882,4.79827 -1.42814,0.02 -2.56117,0.003 -2.56117,-0.038 z m 7.95867,-2.59114 c 11.28451,-1.00969 21.6173,-4.66295 30.73209,-10.86566 17.75866,-12.08493 28.28275,-31.91211 28.27853,-53.276147 C 167.99218,71.536717 164.1953,59.136734 156.92479,48.424707 146.58794,33.194909 130.20634,23.059992 112.11682,20.703058 107.22396,20.065554 102.06225,19.977216 97.257816,20.448761 82.733481,21.874291 69.265785,28.141265 58.717238,38.382994 44.759825,51.934438 37.705152,71.014109 39.476883,90.419373 c 0.97344,10.661807 4.521577,20.734597 10.453248,29.675667 10.937863,16.48713 28.895673,27.10093 48.418884,28.61755 0.889974,0.0691 1.846735,0.14031 2.126135,0.15818 1.23036,0.0787 7.10544,-0.026 8.509,-0.15159 z m -8.763,-1.87765 c -0.18627,-0.0177 -0.891117,-0.0722 -1.566334,-0.12115 -7.890538,-0.57172 -16.143771,-2.8973 -23.363485,-6.58329 C 56.448763,130.5171 43.713401,111.97238 41.555285,91.01204 41.204787,87.607888 41.159281,82.127203 41.45546,78.989373 42.71979,65.594624 47.898767,53.496523 56.668961,43.450608 66.752492,31.900315 80.79011,24.467691 96.03015,22.609683 c 2.76934,-0.337627 3.775287,-0.389308 7.57767,-0.389308 3.78452,0 4.77901,0.0507 7.53533,0.384146 20.75743,2.511147 38.96168,15.350879 48.27376,34.048212 3.62624,7.280994 5.64628,14.522633 6.39607,22.929307 0.14742,1.652821 0.14742,8.253178 0,9.906 -0.74346,8.335644 -2.7734,15.65157 -6.31944,22.77533 -9.32483,18.73293 -27.34659,31.56031 -47.99641,34.16252 -2.67599,0.33722 -3.6772,0.39504 -7.29665,0.42135 -2.00236,0.0146 -3.79306,0.012 -3.97933,-0.006 z M 86.408399,135.18687 c 0.06729,-0.25637 0.05007,-13.00139 -0.01848,-13.68053 l -0.0541,-0.53603 -1.143,-0.46246 c -2.368426,-0.95824 -4.713097,-2.21921 -6.604,-3.55162 -2.727151,-1.92168 -5.28616,-4.62082 -6.903964,-7.28204 -0.821384,-1.35114 -1.860936,-3.57889 -1.729232,-3.70572 0.02174,-0.0209 2.030254,-0.92256 4.463363,-2.00362 2.74367,-1.21904 4.423833,-2.00976 4.423833,-2.08195 0,-0.064 -0.193023,-0.32954 -0.428941,-0.59005 -0.602789,-0.66562 -1.32647,-1.658645 -1.810709,-2.484625 -1.229831,-2.097758 -2.31559,-5.384907 -2.739222,-8.293022 -0.128865,-0.884627 -0.16171,-0.987434 -0.322821,-1.010426 -0.09865,-0.01408 -4.575397,1.744529 -9.948333,3.908015 -5.372935,2.163485 -10.308869,4.149406 -10.968742,4.413157 -0.659871,0.263751 -1.220676,0.534035 -1.246231,0.600631 -0.108494,0.282732 0.82462,3.80405 1.554889,5.86772 1.592548,4.5004 3.986509,8.91435 7.019385,12.94225 2.828084,3.75592 6.553291,7.49995 10.245418,10.29718 4.690917,3.55395 9.777868,6.18351 14.503302,7.49709 1.442457,0.40098 1.638599,0.4189 1.707587,0.15605 z m 37.704111,-1.27898 c 11.36522,-4.56666 19.48953,-11.52917 25.21895,-21.61257 1.36976,-2.41067 3.52312,-7.05872 3.54267,-7.64686 l 0.01,-0.29125 -5.969,-2.56459 c -3.28295,-1.41053 -6.02434,-2.555645 -6.09197,-2.544704 -0.0749,0.01212 -0.29508,0.49046 -0.56332,1.223844 -1.45476,3.9775 -3.12823,6.48907 -5.91405,8.87584 l -1.04178,0.89254 -0.0577,1.49845 c -0.31059,8.06585 -3.1271,14.29344 -9.61227,21.25381 -0.65317,0.70102 -1.18758,1.31488 -1.18758,1.36411 0,0.17528 0.34442,0.0826 1.66636,-0.44862 z m -2.79573,-49.363626 c 12.09983,-5.000842 24.781,-10.241311 28.18037,-11.645485 3.39937,-1.404174 6.22938,-2.601398 6.28892,-2.660499 0.0878,-0.08716 0.0104,-0.394251 -0.41006,-1.626015 -1.2127,-3.553049 -2.88067,-7.235549 -4.73368,-10.450891 -4.39102,-7.619293 -10.37183,-13.995742 -17.57051,-18.732813 -11.00439,-7.241408 -24.32433,-10.33603 -37.256621,-8.65583 -15.244915,1.980663 -28.529991,10.313462 -37.186741,23.324643 -1.870306,2.811087 -3.504194,5.75283 -4.841778,8.717402 -0.36477,0.808463 -0.41666,0.982753 -0.321052,1.07836 0.107705,0.107705 11.928355,4.820196 12.178589,4.855189 0.06468,0.009 0.163841,0.01193 0.220357,0.0064 0.05652,-0.0055 0.349943,-0.495806 0.652059,-1.089531 4.248405,-8.349036 11.802961,-15.425766 20.79285,-19.477698 4.34698,-1.959275 8.85456,-3.143252 13.631337,-3.580454 1.43239,-0.131102 5.04027,-0.132073 6.39233,-0.0017 6.48475,0.625198 12.1737,2.642978 17.51379,6.211872 4.12891,2.759432 7.99582,6.537902 11.1953,10.939238 0.62296,0.856981 0.77449,1.118311 0.69165,1.192854 -0.0583,0.0525 -9.74537,4.239894 -21.52674,9.305323 -11.78137,5.065429 -21.506097,9.263255 -21.610512,9.328503 -0.251196,0.15697 -0.560444,0.782214 -0.839945,1.698221 -0.207256,0.679237 -0.227655,0.870211 -0.228881,2.142699 -0.0015,1.61219 0.128113,2.242793 0.712542,3.46527 0.461686,0.965727 0.937462,1.609217 1.805502,2.441952 0.781837,0.750038 1.458258,1.226858 2.33896,1.648772 0.528345,0.253111 1.629142,0.644991 1.833961,0.652885 0.05406,0.0021 9.998163,-4.087811 22.098003,-9.088654 z"
         style="fill:#d7241b;stroke-width:0.08466666"
         inkscape:connector-curvature="0" />
      <path
         id="path3726"
         d="m 101.02548,151.31032 c 0,-0.0406 -0.56859,-0.0984 -1.263545,-0.12854 -1.457154,-0.0631 -4.017657,-0.31533 -5.775602,-0.56901 -11.743829,-1.69468 -22.808376,-6.5077 -32.119182,-13.97166 -2.004466,-1.60688 -3.630401,-3.06445 -5.465677,-4.89973 -10.534929,-10.53493 -17.194405,-24.12746 -19.042192,-38.866674 -0.209199,-1.66872 -0.423745,-4.211983 -0.425327,-5.0419 -6.25e-4,-0.328295 -0.04035,-0.636112 -0.08827,-0.684038 -0.05749,-0.05749 -0.07489,-0.948992 -0.05114,-2.620433 0.126892,-8.930129 1.69087,-17.007471 4.793833,-24.758295 3.374118,-8.428137 8.367031,-15.989991 14.815743,-22.438703 9.650529,-9.650528 21.862904,-16.060865 35.223369,-18.488923 2.158885,-0.392344 5.026403,-0.760371 6.731,-0.863879 0.512233,-0.0311 0.984814,-0.09906 1.050179,-0.151023 0.168064,-0.133593 8.230731,-0.133323 8.398311,2.81e-4 0.0654,0.05211 0.557,0.121414 1.09251,0.154001 1.22201,0.07436 3.34873,0.323828 5.16467,0.605824 13.82604,2.14703 26.74322,8.734292 36.75001,18.741079 10.6225,10.622497 17.30707,24.361261 19.08297,39.221115 0.11305,0.945942 0.23254,2.158044 0.26552,2.693561 0.034,0.552341 0.10047,0.999808 0.15357,1.034079 0.12878,0.08313 0.13277,8.428328 0.004,8.515175 -0.0492,0.03323 -0.13554,0.670013 -0.19179,1.415079 -0.39869,5.2822 -1.69255,11.335384 -3.52899,16.510004 -3.37142,9.49981 -8.68019,17.91324 -15.78799,25.02104 -6.44149,6.44148 -14.0324,11.45489 -22.42605,14.81125 -7.79047,3.11518 -15.84053,4.67276 -24.79882,4.79827 -1.42814,0.02 -2.56117,0.003 -2.56117,-0.038 z m 7.95867,-2.59114 c 11.28451,-1.00969 21.6173,-4.66295 30.73209,-10.86566 17.75866,-12.08493 28.28275,-31.91211 28.27853,-53.276147 C 167.99218,71.536717 164.1953,59.136734 156.92479,48.424707 146.58794,33.194909 130.20634,23.059992 112.11682,20.703058 107.22396,20.065554 102.06225,19.977216 97.257816,20.448761 82.733481,21.874291 69.265785,28.141265 58.717238,38.382994 44.759825,51.934438 37.705152,71.014109 39.476883,90.419373 c 0.97344,10.661807 4.521577,20.734597 10.453248,29.675667 10.937863,16.48713 28.895673,27.10093 48.418884,28.61755 0.889974,0.0691 1.846735,0.14031 2.126135,0.15818 1.23036,0.0787 7.10544,-0.026 8.509,-0.15159 z m -8.763,-1.87765 c -0.18627,-0.0177 -0.891117,-0.0722 -1.566334,-0.12115 -7.890538,-0.57172 -16.143771,-2.8973 -23.363485,-6.58329 C 56.448763,130.5171 43.713401,111.97238 41.555285,91.01204 41.204787,87.607888 41.159281,82.127203 41.45546,78.989373 42.71979,65.594624 47.898767,53.496523 56.668961,43.450608 66.752492,31.900315 80.79011,24.467691 96.03015,22.609683 c 2.76934,-0.337627 3.775287,-0.389308 7.57767,-0.389308 3.78452,0 4.77901,0.0507 7.53533,0.384146 20.75743,2.511147 38.96168,15.350879 48.27376,34.048212 3.62624,7.280994 5.64628,14.522633 6.39607,22.929307 0.14742,1.652821 0.14742,8.253178 0,9.906 -0.74346,8.335644 -2.7734,15.65157 -6.31944,22.77533 -9.32483,18.73293 -27.34659,31.56031 -47.99641,34.16252 -2.67599,0.33722 -3.6772,0.39504 -7.29665,0.42135 -2.00236,0.0146 -3.79306,0.012 -3.97933,-0.006 z m 5.88433,-8.48912 c 3.17176,-0.48163 5.58829,-1.20393 8.27937,-2.4747 4.24016,-2.00227 7.94886,-5.04963 10.84813,-8.91369 2.3893,-3.18438 4.14854,-7.10381 4.87841,-10.86866 0.3559,-1.83586 0.37856,-2.45024 0.4614,-12.51032 0.0632,-7.677823 0.11369,-18.397494 0.0898,-19.071167 -0.006,-0.173734 -0.17293,-0.130311 -1.6659,0.433791 -0.7855,0.296794 -3.35224,1.265681 -5.70385,2.153085 -2.35162,0.887402 -5.07577,1.916121 -6.05367,2.286043 l -1.778,0.672585 -0.37006,0.666831 c -2.43253,4.383289 -6.27047,6.829406 -11.27181,7.1841 -1.53801,0.109076 -3.823377,-0.210556 -5.50313,-0.769668 -4.34981,-1.447848 -7.622969,-4.70429 -8.58545,-8.5416 -0.82554,-3.29134 -0.303654,-7.178359 1.403905,-10.456334 0.660498,-1.267948 1.274327,-2.118492 2.304808,-3.193628 1.261408,-1.316067 2.545935,-2.219943 4.149549,-2.919887 2.697618,-1.177455 6.118528,-1.426221 9.447858,-0.687041 0.53551,0.118895 1.04986,0.216394 1.143,0.216663 0.16692,5.08e-4 0.97575,-0.335474 8.255,-3.428803 2.02565,-0.860804 4.07442,-1.727435 4.55282,-1.925847 0.47841,-0.198413 0.89198,-0.396579 0.91904,-0.440371 0.0693,-0.112197 -0.22184,-0.405722 -1.1962,-1.205821 -6.90705,-5.671757 -14.93727,-7.76554 -23.056475,-6.011697 -4.381219,0.946394 -8.573999,3.06233 -12.164855,6.139139 -1.002622,0.859092 -2.901784,2.812163 -3.636932,3.740171 -3.295653,4.160236 -5.038805,8.200436 -5.818036,13.484789 -0.168499,1.142675 -0.141497,4.876265 0.04501,6.223 0.877366,6.335445 3.473542,11.719881 7.674747,15.917337 4.850521,4.84619 11.229756,7.44431 18.287541,7.44811 4.5216,0.002 9.21726,-1.04556 13.78877,-3.07747 0.48241,-0.21442 0.91562,-0.36604 0.96271,-0.33695 0.0551,0.034 0.0659,0.41864 0.0303,1.07878 -0.31825,5.90009 -1.89349,9.98276 -4.8319,12.5232 -2.17177,1.87764 -4.93591,2.81028 -8.6375,2.91437 -3.567481,0.10032 -7.572039,-0.56314 -12.337636,-2.04408 -0.685467,-0.21301 -1.304592,-0.3873 -1.375834,-0.3873 -0.115221,0 -0.12953,0.77542 -0.12953,7.01933 v 7.01933 l 0.698624,0.25279 c 2.366381,0.85626 4.901828,1.50109 7.217709,1.83567 1.789017,0.25847 2.304256,0.2855 4.910667,0.25758 2.11075,-0.0226 2.84846,-0.0621 3.76766,-0.20166 z m -19.697081,-3.16554 c 0.06729,-0.25637 0.05007,-13.00139 -0.01848,-13.68053 l -0.0541,-0.53603 -1.143,-0.46246 c -2.368426,-0.95824 -4.713097,-2.21921 -6.604,-3.55162 -2.727151,-1.92168 -5.28616,-4.62082 -6.903964,-7.28204 -0.821384,-1.35114 -1.860936,-3.57889 -1.729232,-3.70572 0.02174,-0.0209 2.030254,-0.92256 4.463363,-2.00362 2.74367,-1.21904 4.423833,-2.00976 4.423833,-2.08195 0,-0.064 -0.193023,-0.32954 -0.428941,-0.59005 -0.602789,-0.66562 -1.32647,-1.658645 -1.810709,-2.484625 -1.229831,-2.097758 -2.31559,-5.384907 -2.739222,-8.293022 -0.128865,-0.884627 -0.16171,-0.987434 -0.322821,-1.010426 -0.09865,-0.01408 -4.575397,1.744529 -9.948333,3.908015 -5.372935,2.163485 -10.308869,4.149406 -10.968742,4.413157 -0.659871,0.263751 -1.220676,0.534035 -1.246231,0.600631 -0.108494,0.282732 0.82462,3.80405 1.554889,5.86772 1.592548,4.5004 3.986509,8.91435 7.019385,12.94225 2.828084,3.75592 6.553291,7.49995 10.245418,10.29718 4.690917,3.55395 9.777868,6.18351 14.503302,7.49709 1.442457,0.40098 1.638599,0.4189 1.707587,0.15605 z m 37.704111,-1.27898 c 11.36522,-4.56666 19.48953,-11.52917 25.21895,-21.61257 1.36976,-2.41067 3.52312,-7.05872 3.54267,-7.64686 l 0.01,-0.29125 -5.969,-2.56459 c -3.28295,-1.41053 -6.02434,-2.555645 -6.09197,-2.544704 -0.0749,0.01212 -0.29508,0.49046 -0.56332,1.223844 -1.45476,3.9775 -3.12823,6.48907 -5.91405,8.87584 l -1.04178,0.89254 -0.0577,1.49845 c -0.31059,8.06585 -3.1271,14.29344 -9.61227,21.25381 -0.65317,0.70102 -1.18758,1.31488 -1.18758,1.36411 0,0.17528 0.34442,0.0826 1.66636,-0.44862 z m -2.79573,-49.363626 c 12.09983,-5.000842 24.781,-10.241311 28.18037,-11.645485 3.39937,-1.404174 6.22938,-2.601398 6.28892,-2.660499 0.0878,-0.08716 0.0104,-0.394251 -0.41006,-1.626015 -1.2127,-3.553049 -2.88067,-7.235549 -4.73368,-10.450891 -4.39102,-7.619293 -10.37183,-13.995742 -17.57051,-18.732813 -11.00439,-7.241408 -24.32433,-10.33603 -37.256621,-8.65583 -15.244915,1.980663 -28.529991,10.313462 -37.186741,23.324643 -1.870306,2.811087 -3.504194,5.75283 -4.841778,8.717402 -0.36477,0.808463 -0.41666,0.982753 -0.321052,1.07836 0.107705,0.107705 11.928355,4.820196 12.178589,4.855189 0.06468,0.009 0.163841,0.01193 0.220357,0.0064 0.05652,-0.0055 0.349943,-0.495806 0.652059,-1.089531 4.248405,-8.349036 11.802961,-15.425766 20.79285,-19.477698 4.34698,-1.959275 8.85456,-3.143252 13.631337,-3.580454 1.43239,-0.131102 5.04027,-0.132073 6.39233,-0.0017 6.48475,0.625198 12.1737,2.642978 17.51379,6.211872 4.12891,2.759432 7.99582,6.537902 11.1953,10.939238 0.62296,0.856981 0.77449,1.118311 0.69165,1.192854 -0.0583,0.0525 -9.74537,4.239894 -21.52674,9.305323 -11.78137,5.065429 -21.506097,9.263255 -21.610512,9.328503 -0.251196,0.15697 -0.560444,0.782214 -0.839945,1.698221 -0.207256,0.679237 -0.227655,0.870211 -0.228881,2.142699 -0.0015,1.61219 0.128113,2.242793 0.712542,3.46527 0.461686,0.965727 0.937462,1.609217 1.805502,2.441952 0.781837,0.750038 1.458258,1.226858 2.33896,1.648772 0.528345,0.253111 1.629142,0.644991 1.833961,0.652885 0.05406,0.0021 9.998163,-4.087811 22.098003,-9.088654 z"
         style="fill:#1e1916;stroke-width:0.08466666"
         inkscape:connector-curvature="0" />
    </g>
  </g>
</svg>
